<svg data-v-423bf9ae="" xmlns="http://www.w3.org/2000/svg" viewBox="0 0 266.9349808180075 60" class="font"><!----><!----><!----><g data-v-423bf9ae="" id="e86a739d-9fc2-40ee-b0eb-b0df3a2c44ab" fill="white" transform="matrix(4.64396282087413,0,0,4.64396282087413,-2.554179998430783,-34.50464248506857)"><path d="M6.77 15.03L10.64 7.43L12.08 7.43L12.08 7.59Q11.92 7.68 11.83 7.89Q11.75 8.09 11.74 8.27Q11.73 8.44 11.73 8.81L11.73 8.81Q11.73 8.89 11.73 8.93L11.73 8.93Q11.73 11.07 11.77 12.59Q11.82 14.11 11.98 15.66L11.98 15.66Q12.02 15.98 12.24 16.21Q12.46 16.45 12.80 16.45L12.80 16.45Q12.82 16.45 13.58 16.37L13.58 16.37L13.58 16.70Q12.30 17.17 11.68 17.17L11.68 17.17Q11.31 17.17 11.05 17.06Q10.79 16.94 10.79 16.69L10.79 16.69L10.79 14.14Q10.79 14.03 10.66 9.42L10.66 9.42Q10.66 9.34 10.62 9.27Q10.59 9.21 10.54 9.21L10.54 9.21Q10.46 9.21 10.39 9.32L10.39 9.32L6.38 17.08L5.96 17.08Q5.84 16.78 5.43 15.80Q5.02 14.81 4.83 14.37Q4.65 13.92 4.29 13.07Q3.92 12.22 3.70 11.71Q3.47 11.20 3.20 10.59Q2.93 9.99 2.71 9.56L2.71 9.56Q2.63 9.42 2.56 9.42L2.56 9.42Q2.46 9.42 2.32 10.34Q2.19 11.25 2.05 12.68Q1.91 14.11 1.84 15.03Q1.76 15.96 1.70 16.77L1.70 16.77L0.64 17.13L0.55 17.09Q1.47 12.33 1.95 8.82L1.95 8.82Q1.96 8.76 1.96 8.65L1.96 8.65Q1.96 8.46 1.86 8.30Q1.75 8.15 1.57 8.10L1.57 8.10L0.62 7.83L0.64 7.53L0.75 7.43L3.21 7.43Q3.57 8.48 4.17 9.92Q4.78 11.35 5.23 12.33Q5.67 13.31 6.45 14.96L6.45 14.96Q6.55 15.16 6.61 15.16L6.61 15.16Q6.65 15.16 6.70 15.11Q6.75 15.07 6.77 15.03L6.77 15.03ZM18.98 11.05L18.98 11.05L19.72 10.62L19.80 10.69Q19.71 12.36 19.71 13.75L19.71 13.75Q19.71 13.88 19.70 14.16Q19.69 14.44 19.68 14.65Q19.68 14.86 19.68 15.14Q19.69 15.42 19.72 15.61Q19.76 15.81 19.81 15.99Q19.87 16.17 19.98 16.27Q20.10 16.37 20.25 16.37L20.25 16.37Q20.49 16.37 21.16 16.11L21.16 16.11L21.27 16.45Q21.23 16.47 21.08 16.56Q20.92 16.65 20.87 16.69Q20.81 16.72 20.67 16.80Q20.52 16.88 20.45 16.93Q20.37 16.97 20.24 17.03Q20.12 17.10 20.03 17.13Q19.95 17.16 19.84 17.20Q19.74 17.23 19.66 17.25Q19.58 17.26 19.50 17.26L19.50 17.26Q19.14 17.26 18.96 17.05Q18.77 16.83 18.70 16.43L18.70 16.43L18.49 16.38Q17.16 17.26 16.21 17.26L16.21 17.26Q15.65 17.26 15.24 17.01Q14.82 16.76 14.59 16.34Q14.37 15.93 14.26 15.47Q14.15 15.00 14.15 14.50L14.15 14.50Q14.15 13.89 14.27 13.33Q14.38 12.77 14.64 12.26Q14.90 11.76 15.28 11.38Q15.66 11.01 16.23 10.79Q16.80 10.57 17.49 10.57L17.49 10.57Q17.84 10.57 18.25 10.69Q18.66 10.82 18.98 11.05ZM18.68 15.70L18.68 15.70L18.68 12.48Q18.68 12.24 18.67 12.11Q18.66 11.98 18.61 11.81Q18.55 11.63 18.45 11.52L18.45 11.52Q18.01 11.05 17.50 11.05L17.50 11.05Q16.72 11.05 16.17 11.59L16.17 11.59Q15.88 11.87 15.66 12.49Q15.44 13.12 15.42 14.08L15.42 14.08Q15.39 15.12 15.80 15.76L15.80 15.76Q16.17 16.33 17.19 16.33L17.19 16.33Q17.86 16.33 18.68 15.70ZM23.54 16.84L23.54 16.84L22.56 17.17L22.35 17.08Q22.48 13.88 22.48 12.92L22.48 12.92Q22.48 12.10 22.38 11.70Q22.28 11.31 21.96 11.31L21.96 11.31Q21.82 11.31 21.64 11.38Q21.45 11.46 21.31 11.54Q21.16 11.63 20.91 11.80L20.91 11.80L20.67 11.49Q21.09 11.19 21.32 11.03Q21.56 10.86 21.94 10.68Q22.32 10.49 22.56 10.49L22.56 10.49Q23.04 10.49 23.27 10.75Q23.50 11.01 23.57 11.45L23.57 11.45L23.68 11.53Q24.44 11.07 25.08 10.80Q25.72 10.52 26.33 10.52L26.33 10.52Q27.05 10.52 27.41 10.93L27.41 10.93Q27.54 11.09 27.60 11.59Q27.67 12.09 27.68 12.48Q27.69 12.86 27.69 13.51L27.69 13.51Q27.69 15.17 27.70 15.34L27.70 15.34Q27.73 16.00 27.97 16.15L27.97 16.15Q28.11 16.25 28.36 16.25L28.36 16.25Q28.75 16.25 29.48 15.69L29.48 15.69L29.66 15.69L29.78 15.98Q29.25 16.51 28.65 16.87Q28.05 17.23 27.58 17.23L27.58 17.23Q26.58 17.23 26.58 16.00L26.58 16.00L26.65 13.60Q26.65 12.48 26.37 11.91Q26.09 11.35 25.39 11.35L25.39 11.35Q24.66 11.35 23.58 12.20L23.58 12.20Q23.50 14.38 23.50 15.46L23.50 15.46Q23.50 15.86 23.54 16.84ZM34.46 16.46L34.33 16.37Q33.82 16.66 33.55 16.80Q33.29 16.94 32.82 17.09Q32.35 17.25 31.94 17.25L31.94 17.25Q31.06 17.25 30.48 16.48Q29.91 15.72 29.91 14.51L29.91 14.51Q29.91 12.69 30.82 11.64Q31.73 10.58 33.11 10.58L33.11 10.58Q34.13 10.58 34.75 11.05L34.75 11.05L35.46 10.65L35.66 10.73Q35.53 13.15 35.53 15.94L35.53 15.94Q35.53 17.40 35.23 18.29L35.23 18.29Q34.95 19.03 34.21 19.60L34.21 19.60Q33.23 20.35 31.94 20.35L31.94 20.35Q30.84 20.35 30.00 19.56L30.00 19.56L30.69 18.70L30.89 18.70Q31.09 19.11 31.51 19.44Q31.92 19.78 32.29 19.78L32.29 19.78Q32.83 19.78 33.24 19.52Q33.65 19.26 33.91 18.80Q34.17 18.33 34.30 17.75Q34.44 17.17 34.46 16.46L34.46 16.46ZM34.46 15.70L34.46 15.70L34.46 12.01Q34.43 11.55 34.06 11.30Q33.69 11.05 33.21 11.05L33.21 11.05Q32.74 11.05 32.36 11.27Q31.98 11.48 31.75 11.81Q31.53 12.14 31.38 12.58Q31.23 13.02 31.17 13.43Q31.11 13.84 31.11 14.25L31.11 14.25Q31.11 15.13 31.63 15.75Q32.14 16.37 32.71 16.37L32.71 16.37Q33.15 16.37 33.66 16.15Q34.17 15.93 34.46 15.70ZM38.44 11.60L38.44 11.60L38.33 14.54Q38.33 15.37 38.46 15.78Q38.60 16.18 38.94 16.18L38.94 16.18Q39.31 16.18 39.60 16.02Q39.89 15.86 40.24 15.55L40.24 15.55L40.41 15.69L40.41 15.85Q39.38 17.20 38.44 17.20L38.44 17.20Q38.18 17.20 38.00 17.15Q37.83 17.10 37.66 16.94Q37.50 16.79 37.41 16.46Q37.32 16.13 37.32 15.63L37.32 15.63L37.41 12.54Q37.41 11.35 36.91 11.35L36.91 11.35Q36.50 11.35 35.79 11.80L35.79 11.80L35.62 11.55Q36.92 10.49 37.58 10.49L37.58 10.49Q38.02 10.49 38.23 10.80Q38.44 11.10 38.44 11.60ZM38.64 8.34L38.64 8.34Q38.62 8.69 38.38 8.91Q38.14 9.13 37.80 9.13L37.80 9.13Q37.46 9.13 37.22 8.89Q36.98 8.65 36.98 8.31Q36.98 7.97 37.27 7.75Q37.56 7.53 37.88 7.53L37.88 7.53Q38.23 7.53 38.43 7.77Q38.64 8.01 38.64 8.34ZM45.37 11.05L45.37 11.05L46.11 10.62L46.18 10.69Q46.09 12.36 46.09 13.75L46.09 13.75Q46.09 13.88 46.08 14.16Q46.07 14.44 46.07 14.65Q46.07 14.86 46.07 15.14Q46.07 15.42 46.11 15.61Q46.14 15.81 46.20 15.99Q46.26 16.17 46.37 16.27Q46.48 16.37 46.64 16.37L46.64 16.37Q46.87 16.37 47.55 16.11L47.55 16.11L47.65 16.45Q47.61 16.47 47.46 16.56Q47.31 16.65 47.25 16.69Q47.20 16.72 47.05 16.80Q46.91 16.88 46.83 16.93Q46.76 16.97 46.63 17.03Q46.50 17.10 46.42 17.13Q46.33 17.16 46.23 17.20Q46.13 17.23 46.05 17.25Q45.96 17.26 45.89 17.26L45.89 17.26Q45.53 17.26 45.34 17.05Q45.16 16.83 45.09 16.43L45.09 16.43L44.88 16.38Q43.54 17.26 42.59 17.26L42.59 17.26Q42.04 17.26 41.62 17.01Q41.21 16.76 40.98 16.34Q40.76 15.93 40.65 15.47Q40.54 15.00 40.54 14.50L40.54 14.50Q40.54 13.89 40.65 13.33Q40.77 12.77 41.03 12.26Q41.29 11.76 41.67 11.38Q42.05 11.01 42.62 10.79Q43.18 10.57 43.87 10.57L43.87 10.57Q44.23 10.57 44.64 10.69Q45.04 10.82 45.37 11.05ZM45.06 15.70L45.06 15.70L45.06 12.48Q45.06 12.24 45.06 12.11Q45.05 11.98 44.99 11.81Q44.94 11.63 44.84 11.52L44.84 11.52Q44.39 11.05 43.89 11.05L43.89 11.05Q43.11 11.05 42.55 11.59L42.55 11.59Q42.27 11.87 42.04 12.49Q41.82 13.12 41.80 14.08L41.80 14.08Q41.77 15.12 42.19 15.76L42.19 15.76Q42.55 16.33 43.58 16.33L43.58 16.33Q44.25 16.33 45.06 15.70ZM52.49 11.66L51.73 12.35L51.56 12.27Q51.50 11.93 51.32 11.70Q51.15 11.46 50.83 11.46L50.83 11.46Q50.44 11.46 50.16 11.72Q49.89 11.98 49.75 12.33L49.75 12.33Q49.66 12.54 49.63 12.91Q49.61 13.28 49.63 13.94Q49.65 14.59 49.65 14.71L49.65 14.71Q49.65 15.77 49.69 16.84L49.69 16.84L48.71 17.13L48.50 17.01Q48.67 15.05 48.67 13.69L48.67 13.69Q48.67 13.62 48.67 13.50L48.67 13.50Q48.67 13.23 48.67 13.10Q48.67 12.97 48.66 12.73Q48.65 12.48 48.63 12.35Q48.62 12.21 48.59 12.02Q48.57 11.83 48.52 11.73Q48.47 11.63 48.41 11.52Q48.35 11.41 48.26 11.36Q48.17 11.32 48.06 11.32L48.06 11.32Q47.74 11.32 46.97 11.76L46.97 11.76L46.81 11.52Q47.23 11.18 47.44 11.03Q47.65 10.87 48.04 10.67Q48.43 10.47 48.69 10.47L48.69 10.47Q49.56 10.47 49.70 11.48L49.70 11.48L49.84 11.53Q50.85 10.55 51.39 10.55L51.39 10.55Q52.38 10.55 52.49 11.66L52.49 11.66ZM54.32 11.55L54.32 11.55Q53.94 11.95 53.81 12.41Q53.68 12.87 53.68 13.45L53.68 13.45Q53.68 13.54 53.70 13.70L53.70 13.70L53.76 13.76L56.59 12.64Q56.77 12.58 56.77 12.27L56.77 12.27Q56.77 11.79 56.41 11.38Q56.05 10.96 55.49 10.96L55.49 10.96Q54.80 10.96 54.32 11.55ZM57.67 12.63L57.67 12.63L53.73 14.33Q53.76 14.69 53.88 15.02Q53.99 15.35 54.20 15.65Q54.40 15.95 54.75 16.13Q55.09 16.30 55.54 16.30L55.54 16.30Q56.47 16.30 57.69 15.35L57.69 15.35L57.85 15.38L58.03 15.63Q56.29 17.26 54.84 17.26L54.84 17.26Q54.30 17.26 53.88 17.06Q53.46 16.86 53.21 16.55Q52.96 16.23 52.80 15.78Q52.64 15.33 52.58 14.88Q52.51 14.44 52.51 13.92L52.51 13.92Q52.51 12.48 53.22 11.66L53.22 11.66Q53.74 11.05 54.46 10.73Q55.19 10.40 55.99 10.40L55.99 10.40Q56.88 10.40 57.42 10.95Q57.97 11.50 57.97 12.33L57.97 12.33Q57.97 12.41 57.92 12.47Q57.87 12.53 57.83 12.55Q57.78 12.58 57.67 12.63Z"></path></g><!----><!----></svg>